<?xml version="1.0" encoding="utf-8"?>
<!-- Generator: Adobe Illustrator 25.0.1, SVG Export Plug-In . SVG Version: 6.00 Build 0)  -->
<svg version="1.1" id="Layer_1" xmlns="http://www.w3.org/2000/svg" xmlns:xlink="http://www.w3.org/1999/xlink" x="0px" y="0px"
	 viewBox="0 0 80 80" style="enable-background:new 0 0 80 80;" xml:space="preserve">
<style type="text/css">
	.st0{fill:#C7FBFE;}
	.st1{fill:#D3D5FC;}
</style>
<g>
	<path class="st0" d="M72.36,78H7.64C4.52,78,2,75.48,2,72.36V26.64C2,23.52,4.52,21,7.64,21h64.72c3.11,0,5.64,2.52,5.64,5.64
		v45.72C78,75.48,75.48,78,72.36,78z"/>
</g>
<path class="st1" d="M9.71,21.5c0,0,28.79-42.5,59.79,0.5h-5.89c0,0-21.12-31-48.61,0L9.71,21.5z"/>
<path class="st1" d="M62.46,72H19.54C16.48,72,14,69.52,14,66.46V35.54c0-3.06,2.48-5.54,5.54-5.54h42.92
	c3.06,0,5.54,2.48,5.54,5.54v30.92C68,69.52,65.52,72,62.46,72z"/>
</svg>
